<svg id="Layer_1" data-name="Layer 1" xmlns="http://www.w3.org/2000/svg" xmlns:xlink="http://www.w3.org/1999/xlink" viewBox="0 0 168.67 138.76"><defs><style>.cls-1{fill:url(#linear-gradient);}.cls-2{fill:url(#linear-gradient-2);}.cls-3{fill:url(#linear-gradient-3);}.cls-4{fill:#fff100;}.cls-5{fill:#ffca05;}</style><linearGradient id="linear-gradient" x1="43.22" y1="115.69" x2="111.65" y2="-2.84" gradientUnits="userSpaceOnUse"><stop offset="0" stop-color="#e6e7e8"/><stop offset="0.13" stop-color="#bbbdbf"/><stop offset="0.27" stop-color="#929497"/><stop offset="0.39" stop-color="#e6e7e8"/><stop offset="0.69" stop-color="#929497"/><stop offset="1" stop-color="#f1f1f2"/></linearGradient><linearGradient id="linear-gradient-2" x1="48.79" y1="108.93" x2="107.14" y2="7.86" gradientUnits="userSpaceOnUse"><stop offset="0" stop-color="#fff"/><stop offset="0.8" stop-color="#58595b"/><stop offset="1" stop-color="#fff"/></linearGradient><linearGradient id="linear-gradient-3" x1="50.21" y1="107.23" x2="106.07" y2="10.48" gradientUnits="userSpaceOnUse"><stop offset="0" stop-color="#ec1c24"/><stop offset="0.41" stop-color="#c8252c"/><stop offset="1" stop-color="#ec1c24"/></linearGradient></defs><path class="cls-1" d="M84.32,10.11A113.32,113.32,0,0,0,134.7,23.67a150.16,150.16,0,0,1-2.6,40.39c-6.5,31-22.57,52.81-47.78,65C59.11,116.87,43,95,36.54,64.06a150.18,150.18,0,0,1-2.6-40.39A113.32,113.32,0,0,0,84.32,10.11M84.32,0s-23,15.16-54.77,15.16c-1.2,0-2.4,0-3.62-.06,0,0-13.93,91.55,58.39,123.66C156.64,106.65,142.71,15.1,142.71,15.1c-1.22,0-2.43.06-3.62.06C107.32,15.16,84.32,0,84.32,0Z"/><path class="cls-2" d="M84.32,10.22A113.48,113.48,0,0,1,33.94,23.77a150.18,150.18,0,0,0,2.6,40.39c6.5,31,22.57,52.82,47.78,65,25.21-12.18,41.28-34,47.78-65a150.16,150.16,0,0,0,2.6-40.39A113.48,113.48,0,0,1,84.32,10.22ZM130,64c-6.25,29.76-21.62,50.85-45.69,62.69C60.25,114.86,44.88,93.77,38.63,64A146.82,146.82,0,0,1,36,25.81a113.63,113.63,0,0,0,48.31-13.1,113.57,113.57,0,0,0,48.3,13.1A145.9,145.9,0,0,1,130,64Z"/><path class="cls-3" d="M130,64c-6.25,29.76-21.62,50.85-45.69,62.69C60.25,114.86,44.88,93.77,38.63,64A146.38,146.38,0,0,1,36,25.81a113.63,113.63,0,0,0,48.31-13.1,113.57,113.57,0,0,0,48.3,13.1A145.9,145.9,0,0,1,130,64Z"/><polygon class="cls-4" points="75.9 51.45 48.64 51.45 84.32 63.04 75.9 51.45"/><polygon class="cls-4" points="84.32 63.04 84.32 63.04 106.37 93.39 97.95 67.47 84.32 63.04"/><polygon class="cls-5" points="62.27 93.39 84.32 77.37 84.32 63.04 62.27 93.39"/><polygon class="cls-4" points="120 51.45 92.74 51.45 84.32 63.04 120 51.45"/><polygon class="cls-5" points="84.32 77.37 106.37 93.39 84.32 63.04 84.32 77.37"/><polygon class="cls-4" points="84.32 63.04 70.69 67.47 62.27 93.39 84.32 63.04 84.32 63.04"/><polygon class="cls-4" points="75.9 51.45 84.32 63.04 84.32 25.52 75.9 51.45"/><polygon class="cls-5" points="84.32 25.52 84.32 63.04 92.74 51.45 84.32 25.52"/><polygon class="cls-5" points="84.32 63.04 48.64 51.45 70.69 67.47 84.32 63.04 84.32 63.04"/><polygon class="cls-5" points="84.32 63.04 97.95 67.47 120 51.45 84.32 63.04 84.32 63.04"/></svg>